<svg xmlns="http://www.w3.org/2000/svg" id="Layer_1" width="256" height="256" viewBox="0 0 256 256"><path d="M129.9.8l110.5 63.8v127.6L129.9 256 19.4 192.2V64.6L129.9.8z"/><path fill="#fff" d="M69.2 175.9a2 2 0 0 1-2.1-2.1v-25.4H39.4a2.3 2.3 0 0 1-2.1-2.1 2.2 2.2 0 0 1 2.1-2.1h15.7v-13.7a2.1 2.1 0 0 1 2.1-2.1h8.2a66.6 66.6 0 0 1 64.2-51c.2-.2.4-.2.9 0 31 .2 56.8 22.1 63.8 51h8.1a2 2 0 0 1 2.1 2.1v13.7h15.8a2.3 2.3 0 0 1 2.1 2.1 2.3 2.3 0 0 1-2.1 2.1h-27.7v25.4a2.1 2.1 0 0 1-2.1 2.1zm-9.9-43.3v11.6h141v-11.6zm66.3-50.8c-26.8 1.7-49.3 21.2-55.8 46.6h22.5zm-54.3 66.6v23.3h56.4v-23.3zM127.7 86l-30.2 42.4h30.2zm4.2-4.4v46.8h58c-6.5-26-30.1-45.7-58-46.8zm0 66.8v23.3h9.5v-23.3zm13.7 0v23.3h42.8v-23.3z"/></svg>