<svg xmlns="http://www.w3.org/2000/svg" id="Layer_1" width="256" height="256" viewBox="0 0 256 256"><path d="M127.5.5L238 64.3v127.6l-110.5 63.8L17 191.9V64.3L127.5.5z"/><path fill="#fff" d="M65.1 179.8l-4.9-6.9a2.3 2.3 0 0 1 .2-2.5l17.4-20.5h-8.6a2.1 2.1 0 0 1-2.1-2.1v-15.1a2 2 0 0 1 2.1-2.1h12.2a57.1 57.1 0 0 1-2.3-15.9 49.7 49.7 0 0 1 49.7-49.5c27 0 49.4 22.4 49.4 49.5a50.6 50.6 0 0 1-2.3 15.9h12.2a2 2 0 0 1 2.1 2.1v15.1a2.1 2.1 0 0 1-2.1 2.1h-10.7l17.2 20.5a2.3 2.3 0 0 1 0 2.5l-4.9 6.9a2.1 2.1 0 0 1-2.7.7l-10-5.3H77.8l-10 5.3a2.2 2.2 0 0 1-2.7-.7zm31.8-29.9H83.1l-18.5 21.8 3 4.2 35.4-18.7zm-25.6-15.1v10.9H186v-10.9zm14.5-4.2h85.7a49.9 49.9 0 0 0 2.5-15.9 45.4 45.4 0 0 0-90.7 0c0 5.4.4 11.1 2.5 15.9zm20.1 30L86 171h28.5zm-3.5-10.7L120 171h15l17.6-21.1zm46.7 10.7l-8.6 10.4H169zm22.8-10.7h-13.8l-6.3 7.3 35.6 18.7 3-4z"/></svg>