<svg xmlns="http://www.w3.org/2000/svg" id="Layer_1" width="256" height="256" viewBox="0 0 256 256"><path d="M126.7.6L237 64.3v127.5l-110.3 63.7-110.4-63.7V64.3L126.7.6z"/><path fill="#fff" d="M62.6 175.1a2.2 2.2 0 0 1-2.1-2.1 2.3 2.3 0 0 1 2.1-2.1h10.5v-13.1H62.6a2 2 0 0 1-2.1-2.1v-41.3a2 2 0 0 1 2.1-2.1h13.8c1.1-29.7 23.2-46 50.3-46s49.1 16.3 50.2 46h13.8a2 2 0 0 1 2.1 2.1v41.3a2 2 0 0 1-2.1 2.1h-10.5v13.1h10.5a2.3 2.3 0 0 1 2.1 2.1 2.2 2.2 0 0 1-2.1 2.1zm2.1-58.6v37.1h123.9v-37.1zm12.5 41.3v13.1h13.4v-13.1zm3.4-45.5h92.1c-1-27-21.6-41.8-46-41.8s-45.1 14.8-46.1 41.8zm14.2 45.5v13.1h21v-13.1zm25.2 0v13.1h13.3v-13.1zm56.7-14.3h-51.1a2.3 2.3 0 0 1-2.1-2.1 2.3 2.3 0 0 1 2.1-2.1h51.1a2.3 2.3 0 0 1 2.1 2.1 2.3 2.3 0 0 1-2.1 2.1zm-39.2 14.3v13.1h21v-13.1zm25.2 0v13.1h13.4v-13.1z"/></svg>